<svg width="20" height="20" viewBox="0 0 20 20" fill="none" xmlns="http://www.w3.org/2000/svg">
<g id="search_FILL0_wght300_GRAD0_opsz24 1">
<path id="Vector" d="M16.2852 17.1472L11.0513 11.9132C10.6346 12.2572 10.1554 12.5265 9.61376 12.7209C9.07209 12.9153 8.51173 13.0126 7.93267 13.0126C6.50837 13.0126 5.30294 12.5194 4.31638 11.5331C3.32983 10.5468 2.83655 9.34168 2.83655 7.91775C2.83655 6.49381 3.3297 5.28824 4.31601 4.30106C5.30231 3.3139 6.50744 2.82031 7.93138 2.82031C9.35531 2.82031 10.5609 3.31359 11.548 4.30015C12.5352 5.2867 13.0288 6.49213 13.0288 7.91644C13.0288 8.51152 12.9289 9.0799 12.7291 9.62156C12.5293 10.1632 12.2628 10.6344 11.9294 11.035L17.1634 16.269L16.2852 17.1472ZM7.93267 11.7626C9.0064 11.7626 9.91585 11.39 10.661 10.6448C11.4062 9.89962 11.7788 8.99016 11.7788 7.91644C11.7788 6.84272 11.4062 5.93326 10.661 5.18806C9.91585 4.44287 9.0064 4.07027 7.93267 4.07027C6.85895 4.07027 5.94949 4.44287 5.2043 5.18806C4.45912 5.93326 4.08653 6.84272 4.08653 7.91644C4.08653 8.99016 4.45912 9.89962 5.2043 10.6448C5.94949 11.39 6.85895 11.7626 7.93267 11.7626Z" fill="#9EA9B2"/>
</g>
</svg>
